<?xml version="1.0" encoding="iso-8859-1"?>
<!-- Generator: Adobe Illustrator 19.0.0, SVG Export Plug-In . SVG Version: 6.00 Build 0)  -->
<svg version="1.1" id="Layer_1" xmlns="http://www.w3.org/2000/svg" xmlns:xlink="http://www.w3.org/1999/xlink" x="0px" y="0px"
	 viewBox="0 0 512.001 512.001" style="enable-background:new 0 0 512.001 512.001;" xml:space="preserve">
<g>
	<g>
		<path fill="#424242" d="M511.969,183.635c-0.021-0.24-0.055-0.479-0.098-0.717c-0.026-0.143-0.05-0.284-0.084-0.426
			c-0.06-0.253-0.138-0.502-0.223-0.75c-0.041-0.12-0.074-0.24-0.121-0.358c-0.144-0.362-0.308-0.718-0.506-1.062L426.964,34.88
			c-0.021-0.038-0.049-0.07-0.072-0.107c-0.147-0.246-0.306-0.485-0.478-0.714c-0.019-0.026-0.036-0.054-0.056-0.079
			c-0.196-0.254-0.411-0.494-0.637-0.724c-0.049-0.049-0.1-0.095-0.15-0.144c-0.187-0.18-0.382-0.351-0.587-0.513
			c-0.058-0.045-0.114-0.092-0.173-0.135c-0.243-0.182-0.495-0.354-0.762-0.508c-0.012-0.008-0.024-0.015-0.035-0.023
			c-0.277-0.159-0.565-0.3-0.865-0.427c-0.078-0.033-0.159-0.06-0.238-0.091c-0.143-0.056-0.282-0.116-0.429-0.164
			c-0.078-0.025-0.157-0.041-0.235-0.063c-0.103-0.03-0.206-0.058-0.31-0.084c-0.234-0.058-0.466-0.104-0.7-0.14
			c-0.08-0.013-0.159-0.029-0.239-0.04c-0.324-0.041-0.647-0.063-0.967-0.064c-0.011,0-0.02-0.002-0.031-0.002H92
			c-0.011,0-0.02,0.002-0.031,0.002c-0.321,0.001-0.643,0.024-0.967,0.064c-0.081,0.011-0.161,0.027-0.241,0.04
			c-0.233,0.036-0.466,0.083-0.699,0.14c-0.105,0.026-0.208,0.054-0.311,0.084c-0.078,0.023-0.157,0.038-0.235,0.063
			c-0.147,0.048-0.286,0.108-0.429,0.164c-0.079,0.031-0.16,0.058-0.238,0.091c-0.299,0.128-0.589,0.268-0.865,0.428
			c-0.012,0.006-0.023,0.015-0.034,0.021c-0.267,0.156-0.519,0.327-0.763,0.509c-0.059,0.044-0.116,0.09-0.174,0.136
			c-0.205,0.162-0.4,0.332-0.586,0.512c-0.05,0.048-0.102,0.094-0.15,0.144c-0.226,0.229-0.441,0.47-0.637,0.724
			c-0.02,0.026-0.036,0.054-0.056,0.079c-0.173,0.229-0.33,0.468-0.477,0.713c-0.023,0.038-0.05,0.071-0.073,0.108L1.064,180.322
			c-0.198,0.343-0.362,0.699-0.506,1.061c-0.047,0.119-0.08,0.241-0.122,0.362c-0.085,0.247-0.162,0.493-0.222,0.745
			c-0.034,0.143-0.059,0.286-0.085,0.43c-0.043,0.237-0.076,0.474-0.096,0.713c-0.013,0.147-0.024,0.293-0.029,0.44
			c-0.009,0.245-0.001,0.489,0.013,0.734c0.009,0.137,0.012,0.273,0.027,0.411c0.03,0.276,0.08,0.548,0.139,0.82
			c0.021,0.102,0.034,0.205,0.06,0.307c0.094,0.369,0.214,0.734,0.362,1.089c0.03,0.073,0.072,0.14,0.104,0.211
			c0.109,0.243,0.22,0.486,0.354,0.72c0.021,0.036,0.048,0.068,0.07,0.104c0.068,0.114,0.148,0.22,0.221,0.33
			c0.148,0.221,0.301,0.436,0.468,0.64c0.039,0.046,0.066,0.099,0.105,0.144l247.968,288.755c0.031,0.036,0.068,0.069,0.1,0.105
			c0.134,0.15,0.273,0.296,0.418,0.436c0.053,0.05,0.104,0.101,0.158,0.15c0.02,0.018,0.04,0.036,0.061,0.056
			c0.139,0.124,0.283,0.243,0.431,0.358c0.047,0.036,0.092,0.076,0.141,0.112c0.091,0.069,0.187,0.132,0.281,0.196
			c0.033,0.023,0.068,0.045,0.102,0.068c0.096,0.064,0.192,0.131,0.292,0.19c0.001,0.001,0.003,0.001,0.004,0.002
			c0.212,0.127,0.433,0.242,0.658,0.35c0.013,0.006,0.026,0.011,0.038,0.016c0.064,0.03,0.13,0.057,0.194,0.085
			c0.178,0.078,0.359,0.15,0.544,0.216c0.08,0.029,0.162,0.056,0.243,0.083c0.006,0.002,0.013,0.004,0.02,0.006
			c0.033,0.011,0.065,0.024,0.1,0.033c0.138,0.042,0.28,0.075,0.421,0.109c0.081,0.02,0.163,0.042,0.246,0.059
			c0.039,0.009,0.075,0.019,0.114,0.028c0.075,0.014,0.15,0.02,0.225,0.032c0.083,0.014,0.165,0.026,0.249,0.036
			c0.079,0.011,0.158,0.026,0.237,0.033c0.273,0.028,0.547,0.045,0.818,0.045c0.002,0,0.005,0.001,0.008,0.001c0,0,0.001,0,0.002,0
			c0,0,0.001,0,0.002,0c0.002,0,0.005-0.001,0.008-0.001c0.272,0,0.547-0.017,0.821-0.046c0.075-0.008,0.149-0.023,0.223-0.032
			c0.001,0,0.003,0,0.004,0c0.085-0.012,0.169-0.023,0.254-0.036c0.075-0.013,0.15-0.018,0.226-0.032
			c0.042-0.009,0.081-0.02,0.123-0.03c0.068-0.014,0.134-0.032,0.201-0.048c0.154-0.036,0.308-0.073,0.458-0.119
			c0.032-0.01,0.063-0.023,0.095-0.032c0.015-0.004,0.029-0.01,0.044-0.015c0.064-0.02,0.129-0.042,0.192-0.064
			c0.21-0.074,0.416-0.156,0.618-0.245c0.041-0.018,0.083-0.035,0.123-0.054c0.01-0.004,0.02-0.009,0.03-0.013
			c0.011-0.005,0.021-0.01,0.032-0.014c0.335-0.16,0.654-0.343,0.96-0.545c0.032-0.021,0.063-0.042,0.095-0.063
			c0.104-0.071,0.207-0.142,0.308-0.217c0.014-0.011,0.028-0.023,0.042-0.033c0.176-0.133,0.346-0.273,0.509-0.42
			c0.024-0.021,0.046-0.044,0.07-0.065c0.002-0.001,0.003-0.003,0.005-0.005c0.033-0.03,0.065-0.061,0.099-0.092
			c0.182-0.174,0.357-0.355,0.522-0.545c0.011-0.013,0.024-0.023,0.034-0.035l0.047-0.055c0.027-0.032,0.056-0.063,0.082-0.095
			l149.955-174.616c2.894-3.371,2.508-8.448-0.861-11.342c-3.373-2.894-8.45-2.507-11.341,0.861l-118.14,137.571l96.378-238.277
			h108.245l-69.109,80.476c-2.894,3.369-2.508,8.447,0.861,11.34c3.372,2.893,8.448,2.509,11.341-0.861l80.516-93.758
			c0.04-0.046,0.068-0.099,0.106-0.145c0.166-0.203,0.318-0.417,0.465-0.637c0.075-0.112,0.156-0.22,0.224-0.334
			c0.021-0.035,0.048-0.066,0.069-0.103c0.134-0.233,0.243-0.475,0.353-0.717c0.033-0.073,0.075-0.142,0.106-0.216
			c0.148-0.356,0.267-0.72,0.362-1.09c0.026-0.1,0.038-0.202,0.059-0.302c0.059-0.273,0.11-0.547,0.141-0.824
			c0.015-0.136,0.018-0.272,0.027-0.409c0.014-0.246,0.021-0.49,0.013-0.736C511.993,183.925,511.982,183.781,511.969,183.635z
			 M239.229,46.945L142.26,167.697L103.066,46.945H239.229z M89.929,58.575l38.211,117.726H21.961L89.929,58.575z M25.538,192.387
			h108.245l96.382,238.286L25.538,192.387z M247.955,431.755l-96.819-239.369h96.819V431.755z M247.955,176.301h-91.974
			l91.974-114.533V176.301z M264.045,61.767l91.974,114.534h-91.974V61.767z M264.045,431.755V192.387h0h96.819L264.045,431.755z
			 M369.741,167.697L272.772,46.945h136.161L369.741,167.697z M383.86,176.3l38.209-117.726L490.04,176.3H383.86z"/>
	</g>
</g>
<g>
</g>
<g>
</g>
<g>
</g>
<g>
</g>
<g>
</g>
<g>
</g>
<g>
</g>
<g>
</g>
<g>
</g>
<g>
</g>
<g>
</g>
<g>
</g>
<g>
</g>
<g>
</g>
<g>
</g>
</svg>
