<?xml version="1.0" encoding="iso-8859-1"?>
<!-- Generator: Adobe Illustrator 19.1.0, SVG Export Plug-In . SVG Version: 6.00 Build 0)  -->
<svg version="1.1" id="Capa_1" xmlns="http://www.w3.org/2000/svg" xmlns:xlink="http://www.w3.org/1999/xlink" x="0px" y="0px"
	 viewBox="0 0 327.117 327.117" style="enable-background:new 0 0 327.117 327.117;" xml:space="preserve">
<g>
	<g fill="#424242">
		<path d="M316.058,28.503h-305V231.35h113.018l-49.669,88.42l13.078,7.347l28.449-50.645h92.893l28.449,50.645l13.078-7.347
			l-49.669-88.42h115.373L316.058,28.503L316.058,28.503z M200.401,261.472H124.36l16.921-30.122h42.2L200.401,261.472z
			 M301.058,216.35h-275V43.503h275V216.35z"/>
		<polygon points="107.344,130.438 143.237,166.331 195.494,114.075 225.91,144.491 279.548,90.854 268.94,80.248 225.91,123.278 
			195.494,92.861 143.237,145.118 107.344,109.225 47.569,168.998 58.177,179.604 		"/>
		<rect x="124.391" width="78.334" height="15"/>
	</g>
	<g>
	</g>
	<g>
	</g>
	<g>
	</g>
	<g>
	</g>
	<g>
	</g>
	<g>
	</g>
	<g>
	</g>
	<g>
	</g>
	<g>
	</g>
	<g>
	</g>
	<g>
	</g>
	<g>
	</g>
	<g>
	</g>
	<g>
	</g>
	<g>
	</g>
</g>
<g>
</g>
<g>
</g>
<g>
</g>
<g>
</g>
<g>
</g>
<g>
</g>
<g>
</g>
<g>
</g>
<g>
</g>
<g>
</g>
<g>
</g>
<g>
</g>
<g>
</g>
<g>
</g>
<g>
</g>
</svg>
