<?xml version="1.0" encoding="iso-8859-1"?>
<!-- Generator: Adobe Illustrator 18.1.1, SVG Export Plug-In . SVG Version: 6.00 Build 0)  -->
<svg version="1.1" id="Capa_1" xmlns="http://www.w3.org/2000/svg" xmlns:xlink="http://www.w3.org/1999/xlink" x="0px" y="0px"
	 viewBox="0 0 403.933 403.933" style="enable-background:new 0 0 403.933 403.933;" xml:space="preserve">
<g>
	<path style="fill:#424242;" d="M201.967,0C97.897,0,13.229,84.667,13.229,188.737s84.667,188.737,188.737,188.737
		c4.487,0,8.129-3.633,8.129-8.129s-3.642-8.129-8.129-8.129c-95.104,0-172.48-77.376-172.48-172.48s77.376-172.48,172.48-172.48
		s172.48,77.376,172.48,172.48c0,26.101-5.706,51.194-16.948,74.572c-1.951,4.048-0.244,8.909,3.796,10.852
		c4.048,1.951,8.909,0.244,10.844-3.804c12.323-25.589,18.566-53.055,18.566-81.619C390.704,84.667,306.037,0,201.967,0z"/>
	<path style="fill:#424242;" d="M353.678,285.232c-2.65-1.431-5.893-1.236-8.389,0.431c-2.626,1.748-3.885,4.739-3.536,7.657v92.121
		L234.7,359.055c-2.227-0.699-4.731-0.447-6.844,0.878c-2.756,1.74-4.202,4.958-3.682,8.177c0.52,3.219,2.918,5.812,6.08,6.584
		l117.694,29.003c0.642,0.163,1.292,0.236,1.943,0.236c1.796,0,3.568-0.593,5.015-1.731c1.967-1.536,3.113-3.894,3.113-6.397
		V292.369C358.019,289.369,356.328,286.646,353.678,285.232z"/>
</g>
<g>
</g>
<g>
</g>
<g>
</g>
<g>
</g>
<g>
</g>
<g>
</g>
<g>
</g>
<g>
</g>
<g>
</g>
<g>
</g>
<g>
</g>
<g>
</g>
<g>
</g>
<g>
</g>
<g>
</g>
</svg>
