<?xml version="1.0" encoding="utf-8"?>
<!-- Generator: Adobe Illustrator 16.0.0, SVG Export Plug-In . SVG Version: 6.00 Build 0)  -->
<!DOCTYPE svg PUBLIC "-//W3C//DTD SVG 1.1//EN" "http://www.w3.org/Graphics/SVG/1.1/DTD/svg11.dtd">
<svg version="1.1" id="Layer_1" xmlns="http://www.w3.org/2000/svg" xmlns:xlink="http://www.w3.org/1999/xlink" x="0px" y="0px"
	 width="227.653px" height="151.217px" viewBox="0 0 227.653 151.217" enable-background="new 0 0 227.653 151.217"
	 xml:space="preserve">
<path stroke="#FFFFFF" stroke-miterlimit="10" d="M40,114.579c0,11.047-8.956,20.002-20,20.002s-20-8.955-20-20.002
	c0-11.043,8.956-19.998,20-19.998S40,103.536,40,114.579z"/>
<path stroke="#FFFFFF" stroke-miterlimit="10" d="M102,34.998C102,54.329,86.328,70,67,70S32,54.329,32,34.998
	C32,15.671,47.672,0,67,0S102,15.671,102,34.998z"/>
<path stroke="#FFFFFF" stroke-miterlimit="10" d="M167.217,106.214c0,24.854-20.149,45.003-45,45.003s-45-20.149-45-45.003
	c0-24.849,20.149-44.997,45-44.997S167.217,81.366,167.217,106.214z"/>
<circle stroke="#FFFFFF" stroke-miterlimit="10" cx="207.653" cy="131.216" r="20"/>
<circle stroke="#FFFFFF" stroke-miterlimit="10" cx="189.174" cy="29.999" r="20"/>
<line fill="#FFFFFF" stroke="#424242" stroke-width="4" stroke-miterlimit="10" x1="20" y1="114.581" x2="67" y2="35"/>
<line fill="#FFFFFF" stroke="#424242" stroke-width="4" stroke-miterlimit="10" x1="67" y1="35" x2="122.217" y2="106.217"/>
<line fill="#FFFFFF" stroke="#424242" stroke-width="4" stroke-miterlimit="10" x1="122.217" y1="106.217" x2="189.174" y2="30"/>
<line fill="#FFFFFF" stroke="#424242" stroke-width="4" stroke-miterlimit="10" x1="122.217" y1="106.217" x2="207.653" y2="131.217"/>
</svg>
