<?xml version="1.0" encoding="UTF-8" standalone="no"?>
<svg width="234px" height="163px" viewBox="0 0 234 163" version="1.1" xmlns="http://www.w3.org/2000/svg" xmlns:xlink="http://www.w3.org/1999/xlink">
    <!-- Generator: Sketch 40 (33762) - http://www.bohemiancoding.com/sketch -->
    <title>Slice 1</title>
    <desc>Created with Sketch.</desc>
    <defs></defs>
    <g id="Page-1" stroke="none" stroke-width="1" fill="none" fill-rule="evenodd">
        <rect id="Rectangle" x="0" y="0" width="234" height="163"></rect>
        <g id="newmap" transform="translate(2.000000, 5.000000)">
            <path d="M40.945,115.014 C40.945,126.061 31.989,135.016 20.945,135.016 C9.9,135.016 0.945,126.061 0.945,115.014 C0.945,103.971 9.9,95.016 20.945,95.016 C31.989,95.016 40.945,103.971 40.945,115.014 L40.945,115.014 Z" id="Shape" stroke="#FFFFFF" fill="#424242"></path>
            <path d="M102.945,35.434 C102.945,54.764 87.273,70.436 67.945,70.436 C48.617,70.436 32.945,54.764 32.945,35.434 C32.945,16.107 48.617,0.436 67.945,0.436 C87.273,0.436 102.945,16.106 102.945,35.434 L102.945,35.434 Z" id="Shape" stroke="#FFFFFF" fill="#424242"></path>
            <path d="M168.162,106.649 C168.162,131.503 148.013,151.652 123.162,151.652 C98.311,151.652 78.162,131.503 78.162,106.649 C78.162,81.8 98.311,61.652 123.162,61.652 C148.013,61.652 168.162,81.801 168.162,106.649 L168.162,106.649 Z" id="Shape" stroke="#424242" stroke-width="4"></path>
            <circle id="Oval" stroke="#FFFFFF" fill="#424242" cx="208.598" cy="131.651" r="20"></circle>
            <path d="M210.119,30.434 C210.119,41.481 201.164,50.436 190.119,50.436 C179.074,50.436 170.119,41.481 170.119,30.434 C170.119,19.391 179.074,10.436 190.119,10.436 C201.164,10.436 210.119,19.391 210.119,30.434 L210.119,30.434 Z" id="Shape" stroke="#FFFFFF" fill="#424242"></path>
            <path d="M20.945,115.016 L67.945,35.436" id="Shape" stroke="#424242" stroke-width="4" fill="#FFFFFF"></path>
            <path d="M67.945,35.436 L95.665,71.044" id="Shape" stroke="#424242" stroke-width="4" fill="#FFFFFF"></path>
            <path d="M152.855,72.853 L190.119,30.436" id="Shape" stroke="#424242" stroke-width="4" fill="#FFFFFF"></path>
            <path d="M165.88,119.152 L208.598,131.652" id="Shape" stroke="#424242" stroke-width="4" fill="#FFFFFF"></path>
            <text id="+" fill="#424242" font-family="Helvetica" font-size="52" font-weight="normal">
                <tspan x="107.9995" y="121.1523">+</tspan>
            </text>
        </g>
    </g>
</svg>